<svg width="92" height="92" viewBox="0 0 92 92" fill="none" xmlns="http://www.w3.org/2000/svg">
<g filter="url(#filter0_d_1_4070)">
<path d="M24 42C24 29.8497 33.8497 20 46 20C58.1503 20 68 29.8497 68 42C68 54.1503 58.1503 64 46 64C33.8497 64 24 54.1503 24 42Z" fill="#EE4D37"/>
<path d="M37.5847 44.9284C36.9561 44.0653 36.663 43.0029 36.7604 41.9396C36.8578 40.8763 37.3388 39.8848 38.1138 39.1503C42.6083 34.8751 49.7435 35.0535 54.0187 39.548C54.756 40.3203 55.187 41.3346 55.2311 42.4015C55.2752 43.4683 54.9294 44.5147 54.2584 45.3452C54.087 45.5534 53.8528 45.7006 53.5909 45.7647C53.3289 45.8289 53.0532 45.8066 52.805 45.7012L49.0707 44.1695L49.0642 44.1627C48.8742 44.082 48.7071 43.9555 48.5779 43.7946C48.4486 43.6336 48.3613 43.4431 48.3236 43.2401C48.3193 43.2151 48.3166 43.1907 48.3144 43.1658L48.1641 40.6477C46.9206 40.1895 45.1697 40.1534 43.8925 40.5586L43.6298 43.0415C43.6271 43.0658 43.623 43.0898 43.6175 43.1136C43.5717 43.3163 43.4761 43.5044 43.3393 43.6608C43.2026 43.8173 43.029 43.9372 42.8342 44.0097L42.8236 44.0133L39.0202 45.3549C38.767 45.4484 38.4903 45.4573 38.2315 45.3804C37.9728 45.3035 37.7459 45.1449 37.5847 44.9284Z" fill="white"/>
</g>
<defs>
<filter id="filter0_d_1_4070" x="0" y="0" width="92" height="92" filterUnits="userSpaceOnUse" color-interpolation-filters="sRGB">
<feFlood flood-opacity="0" result="BackgroundImageFix"/>
<feColorMatrix in="SourceAlpha" type="matrix" values="0 0 0 0 0 0 0 0 0 0 0 0 0 0 0 0 0 0 127 0" result="hardAlpha"/>
<feOffset dy="4"/>
<feGaussianBlur stdDeviation="12"/>
<feComposite in2="hardAlpha" operator="out"/>
<feColorMatrix type="matrix" values="0 0 0 0 0 0 0 0 0 0 0 0 0 0 0 0 0 0 0.05 0"/>
<feBlend mode="normal" in2="BackgroundImageFix" result="effect1_dropShadow_1_4070"/>
<feBlend mode="normal" in="SourceGraphic" in2="effect1_dropShadow_1_4070" result="shape"/>
</filter>
</defs>
</svg>
