<svg width="92" height="92" viewBox="0 0 92 92" fill="none" xmlns="http://www.w3.org/2000/svg">
<g filter="url(#filter0_d_1_4068)">
<path d="M24 42C24 29.8497 33.8497 20 46 20C58.1503 20 68 29.8497 68 42C68 54.1503 58.1503 64 46 64C33.8497 64 24 54.1503 24 42Z" fill="white"/>
<path d="M42.2445 48.493C43.8199 49.4048 45.6732 49.7125 47.4587 49.3588C49.2442 49.0051 50.8402 48.0141 51.9491 46.5706C53.0579 45.1271 53.604 43.3296 53.4854 41.5132C53.3668 39.6969 52.5918 37.9856 51.3046 36.6985C50.0175 35.4114 48.3063 34.6363 46.4899 34.5177C44.6735 34.3991 42.876 34.9452 41.4325 36.054C39.989 37.1629 38.998 38.7589 38.6443 40.5444C38.2906 42.33 38.5983 44.1832 39.5101 45.7586L38.5328 48.6766C38.496 48.7867 38.4907 48.9049 38.5174 49.0179C38.544 49.1309 38.6016 49.2342 38.6837 49.3163C38.7658 49.3984 38.8691 49.456 38.9821 49.4826C39.0951 49.5093 39.2133 49.504 39.3234 49.4672L42.2445 48.493Z" stroke="#53596C" stroke-linecap="round" stroke-linejoin="round"/>
</g>
<defs>
<filter id="filter0_d_1_4068" x="0" y="0" width="92" height="92" filterUnits="userSpaceOnUse" color-interpolation-filters="sRGB">
<feFlood flood-opacity="0" result="BackgroundImageFix"/>
<feColorMatrix in="SourceAlpha" type="matrix" values="0 0 0 0 0 0 0 0 0 0 0 0 0 0 0 0 0 0 127 0" result="hardAlpha"/>
<feOffset dy="4"/>
<feGaussianBlur stdDeviation="12"/>
<feComposite in2="hardAlpha" operator="out"/>
<feColorMatrix type="matrix" values="0 0 0 0 0 0 0 0 0 0 0 0 0 0 0 0 0 0 0.05 0"/>
<feBlend mode="normal" in2="BackgroundImageFix" result="effect1_dropShadow_1_4068"/>
<feBlend mode="normal" in="SourceGraphic" in2="effect1_dropShadow_1_4068" result="shape"/>
</filter>
</defs>
</svg>
