<svg width="143" height="32" viewBox="0 0 143 32" fill="none" xmlns="http://www.w3.org/2000/svg">
<path d="M6.06936 13.0718C6.76431 14.2755 8.44935 14.8689 9.62198 14.1918C10.8474 13.4844 11.0477 11.826 11.5445 10.9968C12.0412 10.1675 12.9273 9.84318 13.737 9.73089C14.5467 9.61861 16.1979 10.3954 17.4653 9.66355C18.6566 8.9756 19.0256 7.33284 18.3307 6.12915C17.6357 4.92547 15.9507 4.33214 14.778 5.00915C13.5526 5.71664 13.3523 7.375 12.8556 8.20423C12.3588 9.03347 11.7262 9.56196 10.704 9.60046C9.68176 9.63896 8.20209 8.80562 6.93477 9.53744C5.74342 10.2254 5.37441 11.8681 6.06936 13.0718Z" fill="#013BDB"/>
<path d="M6.06936 13.0718C6.76431 14.2755 8.44935 14.8689 9.62198 14.1918C10.8474 13.4844 11.0477 11.826 11.5445 10.9968C12.0412 10.1675 12.9273 9.84318 13.737 9.73089C14.5467 9.61861 16.1979 10.3954 17.4653 9.66355C18.6566 8.9756 19.0256 7.33284 18.3307 6.12915C17.6357 4.92547 15.9507 4.33214 14.778 5.00915C13.5526 5.71664 13.3523 7.375 12.8556 8.20423C12.3588 9.03347 11.7262 9.56196 10.704 9.60046C9.68176 9.63896 8.20209 8.80562 6.93477 9.53744C5.74342 10.2254 5.37441 11.8681 6.06936 13.0718Z" fill="url(#paint0_linear_1_3945)" fill-opacity="0.44" style="mix-blend-mode:plus-lighter"/>
<path d="M18.3311 24.7713C17.6361 25.975 15.9511 26.5684 14.7784 25.8913C13.5531 25.1839 13.3527 23.5255 12.856 22.6963C12.3592 21.867 11.4732 21.5427 10.6634 21.4304C9.85373 21.3181 8.20249 22.0949 6.93517 21.3631C5.74383 20.6751 5.37481 19.0324 6.06976 17.8287C6.76471 16.625 8.44976 16.0316 9.62239 16.7087C10.8478 17.4161 11.0481 19.0745 11.5449 19.9037C12.0416 20.733 12.6742 21.2615 13.6964 21.3C14.7187 21.3385 16.1983 20.5051 17.4657 21.2369C18.657 21.9249 19.026 23.5677 18.3311 24.7713Z" fill="#013BDB"/>
<path d="M18.3311 24.7713C17.6361 25.975 15.9511 26.5684 14.7784 25.8913C13.5531 25.1839 13.3527 23.5255 12.856 22.6963C12.3592 21.867 11.4732 21.5427 10.6634 21.4304C9.85373 21.3181 8.20249 22.0949 6.93517 21.3631C5.74383 20.6751 5.37481 19.0324 6.06976 17.8287C6.76471 16.625 8.44976 16.0316 9.62239 16.7087C10.8478 17.4161 11.0481 19.0745 11.5449 19.9037C12.0416 20.733 12.6742 21.2615 13.6964 21.3C14.7187 21.3385 16.1983 20.5051 17.4657 21.2369C18.657 21.9249 19.026 23.5677 18.3311 24.7713Z" fill="url(#paint1_linear_1_3945)" fill-opacity="0.44" style="mix-blend-mode:plus-lighter"/>
<path d="M22.5329 22.9424C23.9228 22.9424 25.2791 21.7798 25.2791 20.4257C25.2791 19.0108 23.9431 18.0081 23.4733 17.1633C23.0036 16.3185 23.1657 15.3889 23.4733 14.6316C23.781 13.8742 25.2793 12.8326 25.2792 11.3691C25.2791 9.99342 24.0409 8.85246 22.651 8.85246C21.2611 8.85246 19.9047 10.0151 19.9047 11.3691C19.9047 12.7841 21.2407 13.7868 21.7105 14.6316C22.1803 15.4764 22.3217 16.2885 21.8439 17.193C21.3661 18.0975 19.9046 18.9623 19.9047 20.4257C19.9048 21.8014 21.143 22.9424 22.5329 22.9424Z" fill="#013BDB"/>
<path d="M22.5329 22.9424C23.9228 22.9424 25.2791 21.7798 25.2791 20.4257C25.2791 19.0108 23.9431 18.0081 23.4733 17.1633C23.0036 16.3185 23.1657 15.3889 23.4733 14.6316C23.781 13.8742 25.2793 12.8326 25.2792 11.3691C25.2791 9.99342 24.0409 8.85246 22.651 8.85246C21.2611 8.85246 19.9047 10.0151 19.9047 11.3691C19.9047 12.7841 21.2407 13.7868 21.7105 14.6316C22.1803 15.4764 22.3217 16.2885 21.8439 17.193C21.3661 18.0975 19.9046 18.9623 19.9047 20.4257C19.9048 21.8014 21.143 22.9424 22.5329 22.9424Z" fill="url(#paint2_linear_1_3945)" fill-opacity="0.44" style="mix-blend-mode:plus-lighter"/>
<path d="M131.512 23.0026C130.481 23.0026 129.573 22.7478 128.79 22.2383C128.02 21.7288 127.479 21.0452 127.169 20.1877L128.79 19.4234C129.064 19.9951 129.437 20.4487 129.909 20.7842C130.394 21.1198 130.928 21.2876 131.512 21.2876C132.009 21.2876 132.413 21.1757 132.724 20.952C133.035 20.7283 133.19 20.4238 133.19 20.0386C133.19 19.79 133.122 19.5912 132.985 19.442C132.848 19.2805 132.674 19.15 132.463 19.0506C132.264 18.9511 132.059 18.8766 131.848 18.8269L130.263 18.3795C129.393 18.1309 128.741 17.7581 128.306 17.261C127.883 16.7514 127.672 16.1611 127.672 15.49C127.672 14.881 127.827 14.3529 128.138 13.9055C128.449 13.4456 128.877 13.0914 129.424 12.8429C129.971 12.5943 130.586 12.4701 131.27 12.4701C132.19 12.4701 133.01 12.7 133.731 13.1598C134.451 13.6072 134.961 14.2348 135.259 15.0426L133.637 15.8069C133.438 15.3222 133.122 14.937 132.687 14.6511C132.264 14.3653 131.786 14.2224 131.251 14.2224C130.791 14.2224 130.425 14.3342 130.151 14.5579C129.878 14.7692 129.741 15.0488 129.741 15.3968C129.741 15.6329 129.803 15.8318 129.928 15.9933C130.052 16.1425 130.213 16.2667 130.412 16.3662C130.611 16.4532 130.816 16.5277 131.028 16.5899L132.668 17.0746C133.501 17.3107 134.141 17.6835 134.588 18.1931C135.035 18.6902 135.259 19.2867 135.259 19.9827C135.259 20.5792 135.098 21.1074 134.774 21.5672C134.464 22.0146 134.029 22.3688 133.47 22.6298C132.91 22.8783 132.258 23.0026 131.512 23.0026Z" fill="#013BDB"/>
<path d="M131.512 23.0026C130.481 23.0026 129.573 22.7478 128.79 22.2383C128.02 21.7288 127.479 21.0452 127.169 20.1877L128.79 19.4234C129.064 19.9951 129.437 20.4487 129.909 20.7842C130.394 21.1198 130.928 21.2876 131.512 21.2876C132.009 21.2876 132.413 21.1757 132.724 20.952C133.035 20.7283 133.19 20.4238 133.19 20.0386C133.19 19.79 133.122 19.5912 132.985 19.442C132.848 19.2805 132.674 19.15 132.463 19.0506C132.264 18.9511 132.059 18.8766 131.848 18.8269L130.263 18.3795C129.393 18.1309 128.741 17.7581 128.306 17.261C127.883 16.7514 127.672 16.1611 127.672 15.49C127.672 14.881 127.827 14.3529 128.138 13.9055C128.449 13.4456 128.877 13.0914 129.424 12.8429C129.971 12.5943 130.586 12.4701 131.27 12.4701C132.19 12.4701 133.01 12.7 133.731 13.1598C134.451 13.6072 134.961 14.2348 135.259 15.0426L133.637 15.8069C133.438 15.3222 133.122 14.937 132.687 14.6511C132.264 14.3653 131.786 14.2224 131.251 14.2224C130.791 14.2224 130.425 14.3342 130.151 14.5579C129.878 14.7692 129.741 15.0488 129.741 15.3968C129.741 15.6329 129.803 15.8318 129.928 15.9933C130.052 16.1425 130.213 16.2667 130.412 16.3662C130.611 16.4532 130.816 16.5277 131.028 16.5899L132.668 17.0746C133.501 17.3107 134.141 17.6835 134.588 18.1931C135.035 18.6902 135.259 19.2867 135.259 19.9827C135.259 20.5792 135.098 21.1074 134.774 21.5672C134.464 22.0146 134.029 22.3688 133.47 22.6298C132.91 22.8783 132.258 23.0026 131.512 23.0026Z" fill="url(#paint3_linear_1_3945)" fill-opacity="0.44" style="mix-blend-mode:plus-lighter"/>
<path d="M121.802 23.0021C121.019 23.0021 120.304 22.8406 119.658 22.5174C119.024 22.1943 118.533 21.7283 118.185 21.1193L118.427 20.7278V22.7784H116.414V8.66666H118.521V14.7811L118.185 14.2965C118.558 13.7248 119.055 13.2774 119.676 12.9543C120.298 12.6311 121.006 12.4696 121.802 12.4696C122.759 12.4696 123.616 12.6995 124.374 13.1593C125.145 13.6191 125.747 14.2467 126.182 15.0421C126.63 15.8375 126.853 16.7323 126.853 17.7265C126.853 18.7207 126.63 19.6155 126.182 20.4109C125.747 21.2063 125.151 21.8401 124.393 22.3124C123.635 22.7722 122.771 23.0021 121.802 23.0021ZM121.597 21.0447C122.193 21.0447 122.721 20.9018 123.181 20.616C123.641 20.3301 124.001 19.9387 124.262 19.4416C124.536 18.932 124.672 18.3603 124.672 17.7265C124.672 17.0927 124.536 16.5272 124.262 16.0301C124.001 15.533 123.641 15.1415 123.181 14.8557C122.721 14.5699 122.193 14.4269 121.597 14.4269C121.012 14.4269 120.484 14.5699 120.012 14.8557C119.552 15.1415 119.186 15.533 118.912 16.0301C118.651 16.5272 118.521 17.0927 118.521 17.7265C118.521 18.3603 118.651 18.932 118.912 19.4416C119.186 19.9387 119.552 20.3301 120.012 20.616C120.484 20.9018 121.012 21.0447 121.597 21.0447Z" fill="#013BDB"/>
<path d="M121.802 23.0021C121.019 23.0021 120.304 22.8406 119.658 22.5174C119.024 22.1943 118.533 21.7283 118.185 21.1193L118.427 20.7278V22.7784H116.414V8.66666H118.521V14.7811L118.185 14.2965C118.558 13.7248 119.055 13.2774 119.676 12.9543C120.298 12.6311 121.006 12.4696 121.802 12.4696C122.759 12.4696 123.616 12.6995 124.374 13.1593C125.145 13.6191 125.747 14.2467 126.182 15.0421C126.63 15.8375 126.853 16.7323 126.853 17.7265C126.853 18.7207 126.63 19.6155 126.182 20.4109C125.747 21.2063 125.151 21.8401 124.393 22.3124C123.635 22.7722 122.771 23.0021 121.802 23.0021ZM121.597 21.0447C122.193 21.0447 122.721 20.9018 123.181 20.616C123.641 20.3301 124.001 19.9387 124.262 19.4416C124.536 18.932 124.672 18.3603 124.672 17.7265C124.672 17.0927 124.536 16.5272 124.262 16.0301C124.001 15.533 123.641 15.1415 123.181 14.8557C122.721 14.5699 122.193 14.4269 121.597 14.4269C121.012 14.4269 120.484 14.5699 120.012 14.8557C119.552 15.1415 119.186 15.533 118.912 16.0301C118.651 16.5272 118.521 17.0927 118.521 17.7265C118.521 18.3603 118.651 18.932 118.912 19.4416C119.186 19.9387 119.552 20.3301 120.012 20.616C120.484 20.9018 121.012 21.0447 121.597 21.0447Z" fill="url(#paint4_linear_1_3945)" fill-opacity="0.44" style="mix-blend-mode:plus-lighter"/>
<path d="M109.775 23.0026C109.092 23.0026 108.489 22.8845 107.967 22.6484C107.457 22.3999 107.06 22.0643 106.774 21.6418C106.488 21.2068 106.345 20.6973 106.345 20.1131C106.345 19.5663 106.463 19.0754 106.699 18.6405C106.948 18.2055 107.327 17.8389 107.836 17.5406C108.346 17.2423 108.986 17.0311 109.757 16.9068L113.261 16.3289V17.988L110.167 18.5286C109.607 18.628 109.197 18.8082 108.936 19.0692C108.675 19.3178 108.545 19.6409 108.545 20.0386C108.545 20.4238 108.688 20.7407 108.974 20.9893C109.272 21.2254 109.651 21.3435 110.111 21.3435C110.682 21.3435 111.18 21.2192 111.602 20.9707C112.037 20.7221 112.373 20.3928 112.609 19.9827C112.845 19.5601 112.963 19.0941 112.963 18.5845V15.9933C112.963 15.4962 112.776 15.0923 112.404 14.7816C112.043 14.4585 111.559 14.2969 110.95 14.2969C110.39 14.2969 109.899 14.4461 109.477 14.7443C109.067 15.0302 108.762 15.403 108.563 15.8628L106.811 14.9867C106.998 14.4896 107.302 14.0546 107.725 13.6818C108.147 13.2965 108.638 12.9982 109.197 12.787C109.769 12.5757 110.372 12.4701 111.006 12.4701C111.801 12.4701 112.503 12.6192 113.112 12.9175C113.733 13.2157 114.212 13.6321 114.547 14.1664C114.895 14.6884 115.069 15.2974 115.069 15.9933V22.7789H113.056V20.952L113.485 21.0079C113.249 21.4181 112.944 21.7723 112.571 22.0705C112.211 22.3688 111.795 22.5987 111.322 22.7603C110.863 22.9218 110.347 23.0026 109.775 23.0026Z" fill="#013BDB"/>
<path d="M109.775 23.0026C109.092 23.0026 108.489 22.8845 107.967 22.6484C107.457 22.3999 107.06 22.0643 106.774 21.6418C106.488 21.2068 106.345 20.6973 106.345 20.1131C106.345 19.5663 106.463 19.0754 106.699 18.6405C106.948 18.2055 107.327 17.8389 107.836 17.5406C108.346 17.2423 108.986 17.0311 109.757 16.9068L113.261 16.3289V17.988L110.167 18.5286C109.607 18.628 109.197 18.8082 108.936 19.0692C108.675 19.3178 108.545 19.6409 108.545 20.0386C108.545 20.4238 108.688 20.7407 108.974 20.9893C109.272 21.2254 109.651 21.3435 110.111 21.3435C110.682 21.3435 111.18 21.2192 111.602 20.9707C112.037 20.7221 112.373 20.3928 112.609 19.9827C112.845 19.5601 112.963 19.0941 112.963 18.5845V15.9933C112.963 15.4962 112.776 15.0923 112.404 14.7816C112.043 14.4585 111.559 14.2969 110.95 14.2969C110.39 14.2969 109.899 14.4461 109.477 14.7443C109.067 15.0302 108.762 15.403 108.563 15.8628L106.811 14.9867C106.998 14.4896 107.302 14.0546 107.725 13.6818C108.147 13.2965 108.638 12.9982 109.197 12.787C109.769 12.5757 110.372 12.4701 111.006 12.4701C111.801 12.4701 112.503 12.6192 113.112 12.9175C113.733 13.2157 114.212 13.6321 114.547 14.1664C114.895 14.6884 115.069 15.2974 115.069 15.9933V22.7789H113.056V20.952L113.485 21.0079C113.249 21.4181 112.944 21.7723 112.571 22.0705C112.211 22.3688 111.795 22.5987 111.322 22.7603C110.863 22.9218 110.347 23.0026 109.775 23.0026Z" fill="url(#paint5_linear_1_3945)" fill-opacity="0.44" style="mix-blend-mode:plus-lighter"/>
<path d="M96.9109 22.7787V8.89062H99.1106V20.8213H105.113V22.7787H96.9109Z" fill="#013BDB"/>
<path d="M96.9109 22.7787V8.89062H99.1106V20.8213H105.113V22.7787H96.9109Z" fill="url(#paint6_linear_1_3945)" fill-opacity="0.44" style="mix-blend-mode:plus-lighter"/>
<path d="M87.2522 23.0026C86.2828 23.0026 85.3943 22.7727 84.5864 22.3129C83.7911 21.853 83.1573 21.2254 82.685 20.4301C82.2127 19.6347 81.9766 18.7337 81.9766 17.727C81.9766 16.7079 82.2127 15.8069 82.685 15.024C83.1573 14.2286 83.7911 13.6072 84.5864 13.1598C85.3818 12.7 86.2704 12.4701 87.2522 12.4701C88.2464 12.4701 89.135 12.7 89.918 13.1598C90.7134 13.6072 91.341 14.2286 91.8008 15.024C92.273 15.8069 92.5092 16.7079 92.5092 17.727C92.5092 18.7461 92.273 19.6533 91.8008 20.4487C91.3285 21.2441 90.6947 21.8717 89.8993 22.3315C89.104 22.7789 88.2216 23.0026 87.2522 23.0026ZM87.2522 21.0452C87.8487 21.0452 88.3769 20.9023 88.8368 20.6165C89.2966 20.3306 89.657 19.9392 89.918 19.442C90.1914 18.9325 90.3281 18.3608 90.3281 17.727C90.3281 17.0932 90.1914 16.5277 89.918 16.0306C89.657 15.5335 89.2966 15.142 88.8368 14.8562C88.3769 14.5704 87.8487 14.4274 87.2522 14.4274C86.6681 14.4274 86.1399 14.5704 85.6677 14.8562C85.2078 15.142 84.8412 15.5335 84.5678 16.0306C84.3068 16.5277 84.1763 17.0932 84.1763 17.727C84.1763 18.3608 84.3068 18.9325 84.5678 19.442C84.8412 19.9392 85.2078 20.3306 85.6677 20.6165C86.1399 20.9023 86.6681 21.0452 87.2522 21.0452Z" fill="#013BDB"/>
<path d="M87.2522 23.0026C86.2828 23.0026 85.3943 22.7727 84.5864 22.3129C83.7911 21.853 83.1573 21.2254 82.685 20.4301C82.2127 19.6347 81.9766 18.7337 81.9766 17.727C81.9766 16.7079 82.2127 15.8069 82.685 15.024C83.1573 14.2286 83.7911 13.6072 84.5864 13.1598C85.3818 12.7 86.2704 12.4701 87.2522 12.4701C88.2464 12.4701 89.135 12.7 89.918 13.1598C90.7134 13.6072 91.341 14.2286 91.8008 15.024C92.273 15.8069 92.5092 16.7079 92.5092 17.727C92.5092 18.7461 92.273 19.6533 91.8008 20.4487C91.3285 21.2441 90.6947 21.8717 89.8993 22.3315C89.104 22.7789 88.2216 23.0026 87.2522 23.0026ZM87.2522 21.0452C87.8487 21.0452 88.3769 20.9023 88.8368 20.6165C89.2966 20.3306 89.657 19.9392 89.918 19.442C90.1914 18.9325 90.3281 18.3608 90.3281 17.727C90.3281 17.0932 90.1914 16.5277 89.918 16.0306C89.657 15.5335 89.2966 15.142 88.8368 14.8562C88.3769 14.5704 87.8487 14.4274 87.2522 14.4274C86.6681 14.4274 86.1399 14.5704 85.6677 14.8562C85.2078 15.142 84.8412 15.5335 84.5678 16.0306C84.3068 16.5277 84.1763 17.0932 84.1763 17.727C84.1763 18.3608 84.3068 18.9325 84.5678 19.442C84.8412 19.9392 85.2078 20.3306 85.6677 20.6165C86.1399 20.9023 86.6681 21.0452 87.2522 21.0452Z" fill="url(#paint7_linear_1_3945)" fill-opacity="0.44" style="mix-blend-mode:plus-lighter"/>
<path d="M78.9362 22.7787V12.6935H81.0428V22.7787H78.9362ZM78.9362 11.314V8.89062H81.0428V11.314H78.9362Z" fill="#013BDB"/>
<path d="M78.9362 22.7787V12.6935H81.0428V22.7787H78.9362ZM78.9362 11.314V8.89062H81.0428V11.314H78.9362Z" fill="url(#paint8_linear_1_3945)" fill-opacity="0.44" style="mix-blend-mode:plus-lighter"/>
<path d="M69.1316 22.7784V8.66666H71.2381V14.6693L70.9025 14.4083C71.1511 13.7745 71.5488 13.296 72.0956 12.9729C72.6424 12.6373 73.2762 12.4696 73.997 12.4696C74.7427 12.4696 75.4014 12.6311 75.9731 12.9543C76.5447 13.2774 76.9921 13.7248 77.3153 14.2965C77.6384 14.8681 77.7999 15.5206 77.7999 16.2538V22.7784H75.7121V16.8317C75.7121 16.3222 75.6127 15.8934 75.4138 15.5454C75.2274 15.185 74.9664 14.9116 74.6309 14.7252C74.2953 14.5264 73.91 14.4269 73.4751 14.4269C73.0525 14.4269 72.6673 14.5264 72.3193 14.7252C71.9837 14.9116 71.7165 15.185 71.5177 15.5454C71.3313 15.9059 71.2381 16.3346 71.2381 16.8317V22.7784H69.1316Z" fill="#013BDB"/>
<path d="M69.1316 22.7784V8.66666H71.2381V14.6693L70.9025 14.4083C71.1511 13.7745 71.5488 13.296 72.0956 12.9729C72.6424 12.6373 73.2762 12.4696 73.997 12.4696C74.7427 12.4696 75.4014 12.6311 75.9731 12.9543C76.5447 13.2774 76.9921 13.7248 77.3153 14.2965C77.6384 14.8681 77.7999 15.5206 77.7999 16.2538V22.7784H75.7121V16.8317C75.7121 16.3222 75.6127 15.8934 75.4138 15.5454C75.2274 15.185 74.9664 14.9116 74.6309 14.7252C74.2953 14.5264 73.91 14.4269 73.4751 14.4269C73.0525 14.4269 72.6673 14.5264 72.3193 14.7252C71.9837 14.9116 71.7165 15.185 71.5177 15.5454C71.3313 15.9059 71.2381 16.3346 71.2381 16.8317V22.7784H69.1316Z" fill="url(#paint9_linear_1_3945)" fill-opacity="0.44" style="mix-blend-mode:plus-lighter"/>
<path d="M67.0571 22.8907C66.0007 22.8907 65.1805 22.5925 64.5964 21.9959C64.0123 21.3994 63.7202 20.5605 63.7202 19.4793V14.5952H61.9493V12.6937H62.2289C62.7012 12.6937 63.0678 12.557 63.3288 12.2836C63.5897 12.0102 63.7202 11.6374 63.7202 11.1651V10.3822H65.8267V12.6937H68.1197V14.5952H65.8267V19.3861C65.8267 19.7341 65.8827 20.0323 65.9945 20.2809C66.1064 20.517 66.2866 20.7034 66.5351 20.8401C66.7837 20.9644 67.1068 21.0266 67.5045 21.0266C67.6039 21.0266 67.7158 21.0204 67.84 21.0079C67.9643 20.9955 68.0824 20.9831 68.1942 20.9706V22.7789C68.0202 22.8037 67.8276 22.8286 67.6163 22.8535C67.4051 22.8783 67.2187 22.8907 67.0571 22.8907Z" fill="#013BDB"/>
<path d="M67.0571 22.8907C66.0007 22.8907 65.1805 22.5925 64.5964 21.9959C64.0123 21.3994 63.7202 20.5605 63.7202 19.4793V14.5952H61.9493V12.6937H62.2289C62.7012 12.6937 63.0678 12.557 63.3288 12.2836C63.5897 12.0102 63.7202 11.6374 63.7202 11.1651V10.3822H65.8267V12.6937H68.1197V14.5952H65.8267V19.3861C65.8267 19.7341 65.8827 20.0323 65.9945 20.2809C66.1064 20.517 66.2866 20.7034 66.5351 20.8401C66.7837 20.9644 67.1068 21.0266 67.5045 21.0266C67.6039 21.0266 67.7158 21.0204 67.84 21.0079C67.9643 20.9955 68.0824 20.9831 68.1942 20.9706V22.7789C68.0202 22.8037 67.8276 22.8286 67.6163 22.8535C67.4051 22.8783 67.2187 22.8907 67.0571 22.8907Z" fill="url(#paint10_linear_1_3945)" fill-opacity="0.44" style="mix-blend-mode:plus-lighter"/>
<path d="M52.8907 22.7789V12.6938H54.904V14.6698L54.6616 14.4088C54.9102 13.775 55.3079 13.2965 55.8547 12.9734C56.4015 12.6378 57.0353 12.4701 57.7562 12.4701C58.5018 12.4701 59.1605 12.6316 59.7322 12.9547C60.3039 13.2779 60.7513 13.7253 61.0744 14.2969C61.3975 14.8686 61.5591 15.5273 61.5591 16.273V22.7789H59.4712V16.8322C59.4712 16.3227 59.378 15.8939 59.1916 15.5459C59.0051 15.1855 58.738 14.9121 58.39 14.7257C58.0544 14.5269 57.6692 14.4274 57.2342 14.4274C56.7992 14.4274 56.4077 14.5269 56.0598 14.7257C55.7242 14.9121 55.4632 15.1855 55.2768 15.5459C55.0904 15.9063 54.9972 16.3351 54.9972 16.8322V22.7789H52.8907Z" fill="#013BDB"/>
<path d="M52.8907 22.7789V12.6938H54.904V14.6698L54.6616 14.4088C54.9102 13.775 55.3079 13.2965 55.8547 12.9734C56.4015 12.6378 57.0353 12.4701 57.7562 12.4701C58.5018 12.4701 59.1605 12.6316 59.7322 12.9547C60.3039 13.2779 60.7513 13.7253 61.0744 14.2969C61.3975 14.8686 61.5591 15.5273 61.5591 16.273V22.7789H59.4712V16.8322C59.4712 16.3227 59.378 15.8939 59.1916 15.5459C59.0051 15.1855 58.738 14.9121 58.39 14.7257C58.0544 14.5269 57.6692 14.4274 57.2342 14.4274C56.7992 14.4274 56.4077 14.5269 56.0598 14.7257C55.7242 14.9121 55.4632 15.1855 55.2768 15.5459C55.0904 15.9063 54.9972 16.3351 54.9972 16.8322V22.7789H52.8907Z" fill="url(#paint11_linear_1_3945)" fill-opacity="0.44" style="mix-blend-mode:plus-lighter"/>
<path d="M44.2906 26.8797C44.042 26.8797 43.7935 26.8548 43.5449 26.8051C43.3088 26.7678 43.0913 26.7057 42.8925 26.6187V24.8105C43.0416 24.8477 43.2218 24.8788 43.4331 24.9037C43.6443 24.9409 43.8494 24.9596 44.0482 24.9596C44.6324 24.9596 45.0611 24.8291 45.3345 24.5681C45.6204 24.3196 45.8751 23.9343 46.0988 23.4123L46.7699 21.8837L46.7327 23.6547L42.3705 12.6934H44.6261L47.8512 21.1008H47.0868L50.2932 12.6934H52.5675L48.1121 23.8784C47.876 24.4749 47.5777 24.9969 47.2173 25.4443C46.8694 25.9041 46.453 26.2583 45.9683 26.5068C45.4961 26.7554 44.9368 26.8797 44.2906 26.8797Z" fill="#013BDB"/>
<path d="M44.2906 26.8797C44.042 26.8797 43.7935 26.8548 43.5449 26.8051C43.3088 26.7678 43.0913 26.7057 42.8925 26.6187V24.8105C43.0416 24.8477 43.2218 24.8788 43.4331 24.9037C43.6443 24.9409 43.8494 24.9596 44.0482 24.9596C44.6324 24.9596 45.0611 24.8291 45.3345 24.5681C45.6204 24.3196 45.8751 23.9343 46.0988 23.4123L46.7699 21.8837L46.7327 23.6547L42.3705 12.6934H44.6261L47.8512 21.1008H47.0868L50.2932 12.6934H52.5675L48.1121 23.8784C47.876 24.4749 47.5777 24.9969 47.2173 25.4443C46.8694 25.9041 46.453 26.2583 45.9683 26.5068C45.4961 26.7554 44.9368 26.8797 44.2906 26.8797Z" fill="url(#paint12_linear_1_3945)" fill-opacity="0.44" style="mix-blend-mode:plus-lighter"/>
<path d="M37.5152 23.0021C36.6453 23.0021 35.8375 22.8406 35.0918 22.5174C34.3461 22.1819 33.7123 21.7283 33.1903 21.1566C32.6684 20.5849 32.2831 19.9262 32.0346 19.1806L33.8987 18.3976C34.2343 19.2551 34.7252 19.9138 35.3714 20.3736C36.0177 20.8335 36.7633 21.0634 37.6084 21.0634C38.1055 21.0634 38.5405 20.9888 38.9133 20.8397C39.2862 20.6781 39.572 20.4544 39.7709 20.1686C39.9821 19.8827 40.0878 19.5534 40.0878 19.1806C40.0878 18.671 39.9448 18.2671 39.659 17.9689C39.3732 17.6706 38.9506 17.4345 38.3914 17.2605L35.7815 16.4402C34.7376 16.1171 33.9422 15.6262 33.3954 14.9676C32.8486 14.2965 32.5752 13.5135 32.5752 12.6187C32.5752 11.8358 32.7678 11.1522 33.1531 10.5681C33.5383 9.97158 34.0665 9.50554 34.7376 9.16999C35.4211 8.83444 36.1979 8.66666 37.0678 8.66666C37.9005 8.66666 38.6586 8.8158 39.3421 9.11406C40.0256 9.3999 40.6097 9.79759 41.0944 10.3071C41.5915 10.8167 41.9519 11.407 42.1756 12.0781L40.3488 12.8797C40.0753 12.1464 39.6466 11.581 39.0625 11.1833C38.4908 10.7856 37.8259 10.5868 37.0678 10.5868C36.608 10.5868 36.2041 10.6675 35.8561 10.8291C35.5081 10.9782 35.2347 11.2019 35.0359 11.5002C34.8495 11.786 34.7562 12.1216 34.7562 12.5069C34.7562 12.9543 34.8992 13.3519 35.185 13.6999C35.4708 14.0479 35.9058 14.3089 36.4899 14.4829L38.9133 15.2472C40.0194 15.5827 40.8521 16.0674 41.4113 16.7012C41.9706 17.3226 42.2502 18.0994 42.2502 19.0314C42.2502 19.802 42.0451 20.4855 41.635 21.082C41.2373 21.6786 40.6843 22.1508 39.9759 22.4988C39.2675 22.8343 38.4473 23.0021 37.5152 23.0021Z" fill="#013BDB"/>
<path d="M37.5152 23.0021C36.6453 23.0021 35.8375 22.8406 35.0918 22.5174C34.3461 22.1819 33.7123 21.7283 33.1903 21.1566C32.6684 20.5849 32.2831 19.9262 32.0346 19.1806L33.8987 18.3976C34.2343 19.2551 34.7252 19.9138 35.3714 20.3736C36.0177 20.8335 36.7633 21.0634 37.6084 21.0634C38.1055 21.0634 38.5405 20.9888 38.9133 20.8397C39.2862 20.6781 39.572 20.4544 39.7709 20.1686C39.9821 19.8827 40.0878 19.5534 40.0878 19.1806C40.0878 18.671 39.9448 18.2671 39.659 17.9689C39.3732 17.6706 38.9506 17.4345 38.3914 17.2605L35.7815 16.4402C34.7376 16.1171 33.9422 15.6262 33.3954 14.9676C32.8486 14.2965 32.5752 13.5135 32.5752 12.6187C32.5752 11.8358 32.7678 11.1522 33.1531 10.5681C33.5383 9.97158 34.0665 9.50554 34.7376 9.16999C35.4211 8.83444 36.1979 8.66666 37.0678 8.66666C37.9005 8.66666 38.6586 8.8158 39.3421 9.11406C40.0256 9.3999 40.6097 9.79759 41.0944 10.3071C41.5915 10.8167 41.9519 11.407 42.1756 12.0781L40.3488 12.8797C40.0753 12.1464 39.6466 11.581 39.0625 11.1833C38.4908 10.7856 37.8259 10.5868 37.0678 10.5868C36.608 10.5868 36.2041 10.6675 35.8561 10.8291C35.5081 10.9782 35.2347 11.2019 35.0359 11.5002C34.8495 11.786 34.7562 12.1216 34.7562 12.5069C34.7562 12.9543 34.8992 13.3519 35.185 13.6999C35.4708 14.0479 35.9058 14.3089 36.4899 14.4829L38.9133 15.2472C40.0194 15.5827 40.8521 16.0674 41.4113 16.7012C41.9706 17.3226 42.2502 18.0994 42.2502 19.0314C42.2502 19.802 42.0451 20.4855 41.635 21.082C41.2373 21.6786 40.6843 22.1508 39.9759 22.4988C39.2675 22.8343 38.4473 23.0021 37.5152 23.0021Z" fill="url(#paint13_linear_1_3945)" fill-opacity="0.44" style="mix-blend-mode:plus-lighter"/>
<defs>
<linearGradient id="paint0_linear_1_3945" x1="15.4996" y1="26.1759" x2="15.4996" y2="4.72455" gradientUnits="userSpaceOnUse">
<stop stop-color="#000C2F" stop-opacity="0"/>
<stop offset="1" stop-color="#000C2F"/>
</linearGradient>
<linearGradient id="paint1_linear_1_3945" x1="15.4996" y1="26.1759" x2="15.4996" y2="4.72455" gradientUnits="userSpaceOnUse">
<stop stop-color="#000C2F" stop-opacity="0"/>
<stop offset="1" stop-color="#000C2F"/>
</linearGradient>
<linearGradient id="paint2_linear_1_3945" x1="15.4996" y1="26.1759" x2="15.4996" y2="4.72455" gradientUnits="userSpaceOnUse">
<stop stop-color="#000C2F" stop-opacity="0"/>
<stop offset="1" stop-color="#000C2F"/>
</linearGradient>
<linearGradient id="paint3_linear_1_3945" x1="83.8811" y1="22.7789" x2="83.8811" y2="8.77891" gradientUnits="userSpaceOnUse">
<stop stop-color="#000C2F" stop-opacity="0"/>
<stop offset="1" stop-color="#000C2F"/>
</linearGradient>
<linearGradient id="paint4_linear_1_3945" x1="83.8813" y1="22.7784" x2="83.8813" y2="8.77842" gradientUnits="userSpaceOnUse">
<stop stop-color="#000C2F" stop-opacity="0"/>
<stop offset="1" stop-color="#000C2F"/>
</linearGradient>
<linearGradient id="paint5_linear_1_3945" x1="83.8811" y1="22.7789" x2="83.8811" y2="8.77891" gradientUnits="userSpaceOnUse">
<stop stop-color="#000C2F" stop-opacity="0"/>
<stop offset="1" stop-color="#000C2F"/>
</linearGradient>
<linearGradient id="paint6_linear_1_3945" x1="83.8807" y1="22.7787" x2="83.8807" y2="8.77868" gradientUnits="userSpaceOnUse">
<stop stop-color="#000C2F" stop-opacity="0"/>
<stop offset="1" stop-color="#000C2F"/>
</linearGradient>
<linearGradient id="paint7_linear_1_3945" x1="83.8808" y1="22.7789" x2="83.8808" y2="8.77891" gradientUnits="userSpaceOnUse">
<stop stop-color="#000C2F" stop-opacity="0"/>
<stop offset="1" stop-color="#000C2F"/>
</linearGradient>
<linearGradient id="paint8_linear_1_3945" x1="83.8812" y1="22.7787" x2="83.8812" y2="8.77868" gradientUnits="userSpaceOnUse">
<stop stop-color="#000C2F" stop-opacity="0"/>
<stop offset="1" stop-color="#000C2F"/>
</linearGradient>
<linearGradient id="paint9_linear_1_3945" x1="83.8809" y1="22.7784" x2="83.8809" y2="8.77842" gradientUnits="userSpaceOnUse">
<stop stop-color="#000C2F" stop-opacity="0"/>
<stop offset="1" stop-color="#000C2F"/>
</linearGradient>
<linearGradient id="paint10_linear_1_3945" x1="83.8808" y1="22.7789" x2="83.8808" y2="8.77888" gradientUnits="userSpaceOnUse">
<stop stop-color="#000C2F" stop-opacity="0"/>
<stop offset="1" stop-color="#000C2F"/>
</linearGradient>
<linearGradient id="paint11_linear_1_3945" x1="83.8809" y1="22.7789" x2="83.8809" y2="8.77891" gradientUnits="userSpaceOnUse">
<stop stop-color="#000C2F" stop-opacity="0"/>
<stop offset="1" stop-color="#000C2F"/>
</linearGradient>
<linearGradient id="paint12_linear_1_3945" x1="83.8808" y1="22.7785" x2="83.8808" y2="8.77851" gradientUnits="userSpaceOnUse">
<stop stop-color="#000C2F" stop-opacity="0"/>
<stop offset="1" stop-color="#000C2F"/>
</linearGradient>
<linearGradient id="paint13_linear_1_3945" x1="83.881" y1="22.7784" x2="83.881" y2="8.77842" gradientUnits="userSpaceOnUse">
<stop stop-color="#000C2F" stop-opacity="0"/>
<stop offset="1" stop-color="#000C2F"/>
</linearGradient>
</defs>
</svg>
