<svg width="13" height="14" viewBox="0 0 13 14" fill="none" xmlns="http://www.w3.org/2000/svg">
<path d="M3.4956 12.1944C4.75594 12.9238 6.23853 13.17 7.66697 12.887C9.09541 12.6041 10.3722 11.8113 11.2593 10.6565C12.1464 9.50166 12.5832 8.06365 12.4883 6.61055C12.3935 5.15745 11.7734 3.78843 10.7437 2.75875C9.71404 1.72906 8.34503 1.10899 6.89193 1.01413C5.43882 0.919275 4.00082 1.35611 2.84601 2.2432C1.6912 3.13028 0.89841 4.40707 0.615452 5.83551C0.332493 7.26394 0.578677 8.74654 1.30811 10.0069L0.52623 12.3412C0.49685 12.4293 0.492586 12.5239 0.513917 12.6143C0.535247 12.7047 0.581329 12.7873 0.646996 12.853C0.712664 12.9186 0.795322 12.9647 0.885707 12.9861C0.976092 13.0074 1.07063 13.0031 1.15873 12.9737L3.4956 12.1944Z" stroke="white" stroke-linecap="round" stroke-linejoin="round"/>
</svg>
